<svg aria-hidden="true" style="position: absolute; width: 0; height: 0; overflow: hidden;" version="1.1" xmlns="http://www.w3.org/2000/svg" xmlns:xlink="http://www.w3.org/1999/xlink">
<defs>
<symbol id="icon-Client-4" viewBox="0 0 61 32">
<path d="M20.392 13.643h-0.001c-0.868 0-1.571 0.634-1.571 1.416v0.001c0 0.782 0.703 1.416 1.571 1.416h0.001c0.868 0 1.571-0.634 1.571-1.416v-0.001c0-0.782-0.703-1.416-1.571-1.416z"></path>
<path d="M31.986 13.19c-0.002-1.086-0.482-2.128-1.334-2.896s-2.007-1.201-3.212-1.203v0c-1.205 0.002-2.361 0.434-3.213 1.203s-1.332 1.81-1.335 2.896v5.991c0 0 9.092-0.913 9.093-5.99v-0.001z"></path>
<path d="M15.636 21.147c0.002 0.756 0.336 1.48 0.929 2.015s1.396 0.836 2.234 0.838c0.838-0.002 1.641-0.303 2.234-0.838s0.927-1.259 0.929-2.014v-4.168c0 0-6.327 0.636-6.327 4.167zM18.8 21.894c-0.164 0-0.324-0.044-0.46-0.126s-0.242-0.199-0.305-0.335c-0.063-0.136-0.079-0.287-0.047-0.431s0.111-0.278 0.227-0.382c0.116-0.104 0.263-0.176 0.424-0.204s0.327-0.014 0.479 0.043c0.151 0.056 0.281 0.152 0.372 0.275s0.14 0.267 0.14 0.415c0 0.098-0.021 0.196-0.062 0.287s-0.102 0.174-0.179 0.243c-0.077 0.070-0.168 0.125-0.269 0.163s-0.209 0.057-0.318 0.057v-0.003z"></path>
<path d="M24.585 20.551v1.551h-0.32v-1.551h0.32zM25.203 21.214v0.249h-0.705v-0.249h0.705zM25.278 20.551v0.25h-0.78v-0.25h0.78zM26.737 21.29v0.073c0 0.118-0.016 0.224-0.048 0.317s-0.077 0.174-0.135 0.24c-0.058 0.065-0.128 0.115-0.209 0.15s-0.169 0.052-0.267 0.052c-0.097 0-0.186-0.017-0.267-0.052s-0.15-0.085-0.209-0.15c-0.059-0.066-0.105-0.146-0.137-0.24s-0.048-0.2-0.048-0.317v-0.073c0-0.119 0.016-0.224 0.048-0.317s0.077-0.174 0.135-0.24c0.059-0.066 0.129-0.116 0.209-0.151s0.17-0.052 0.267-0.052c0.098 0 0.187 0.017 0.267 0.052s0.151 0.085 0.209 0.151c0.059 0.066 0.104 0.146 0.136 0.24s0.049 0.199 0.049 0.317zM26.414 21.364v-0.076c0-0.082-0.007-0.155-0.022-0.217s-0.037-0.115-0.066-0.158c-0.029-0.043-0.065-0.075-0.107-0.096s-0.090-0.033-0.144-0.033c-0.054 0-0.102 0.011-0.144 0.033s-0.076 0.053-0.105 0.096c-0.028 0.043-0.050 0.095-0.065 0.158s-0.022 0.135-0.022 0.217v0.076c0 0.082 0.007 0.154 0.022 0.217s0.037 0.115 0.066 0.159c0.029 0.043 0.065 0.075 0.107 0.097s0.090 0.033 0.144 0.033c0.054 0 0.102-0.011 0.144-0.033s0.077-0.054 0.105-0.097c0.028-0.043 0.050-0.096 0.065-0.159s0.022-0.136 0.022-0.217zM27.775 21.696c0-0.028-0.004-0.053-0.013-0.075s-0.023-0.043-0.045-0.062c-0.022-0.019-0.053-0.038-0.093-0.056s-0.091-0.038-0.154-0.058c-0.070-0.023-0.137-0.048-0.2-0.077s-0.118-0.061-0.166-0.099c-0.048-0.038-0.085-0.083-0.113-0.133s-0.040-0.109-0.040-0.176c0-0.065 0.014-0.123 0.043-0.176s0.068-0.099 0.119-0.136c0.051-0.038 0.111-0.068 0.181-0.088s0.147-0.031 0.231-0.031c0.114 0 0.214 0.021 0.299 0.062s0.151 0.098 0.198 0.169c0.048 0.072 0.071 0.154 0.071 0.246h-0.317c0-0.045-0.010-0.085-0.029-0.119s-0.047-0.062-0.085-0.082c-0.038-0.020-0.085-0.030-0.143-0.030-0.055 0-0.102 0.009-0.138 0.026s-0.065 0.039-0.083 0.067c-0.018 0.028-0.028 0.059-0.028 0.094 0 0.026 0.006 0.050 0.019 0.071s0.033 0.041 0.060 0.060c0.026 0.018 0.059 0.036 0.097 0.052s0.083 0.032 0.133 0.048c0.084 0.026 0.159 0.054 0.223 0.086s0.119 0.068 0.162 0.108c0.043 0.040 0.076 0.085 0.098 0.135s0.033 0.108 0.033 0.172c0 0.067-0.013 0.128-0.039 0.181s-0.064 0.098-0.114 0.135c-0.050 0.037-0.109 0.065-0.178 0.084s-0.146 0.029-0.231 0.029c-0.077 0-0.152-0.010-0.227-0.030s-0.142-0.052-0.203-0.093c-0.060-0.041-0.109-0.094-0.145-0.158s-0.054-0.14-0.054-0.227h0.321c0 0.048 0.007 0.089 0.022 0.123s0.036 0.060 0.063 0.081c0.028 0.021 0.060 0.036 0.098 0.045s0.080 0.014 0.126 0.014c0.055 0 0.101-0.008 0.136-0.023s0.063-0.037 0.080-0.065c0.018-0.028 0.027-0.059 0.027-0.094zM29.005 20.551v1.551h-0.319v-1.551h0.319zM29.482 20.551v0.25h-1.266v-0.25h1.266zM30.705 21.853v0.249h-0.826v-0.249h0.826zM29.984 20.551v1.551h-0.32v-1.551h0.32zM30.598 21.183v0.243h-0.718v-0.243h0.718zM30.704 20.551v0.25h-0.825v-0.25h0.825zM30.892 20.551h0.578c0.119 0 0.221 0.018 0.306 0.053s0.152 0.088 0.198 0.158 0.069 0.155 0.069 0.257c0 0.083-0.014 0.154-0.043 0.214s-0.067 0.108-0.118 0.148c-0.050 0.039-0.11 0.070-0.178 0.094l-0.101 0.053h-0.503l-0.002-0.249h0.374c0.056 0 0.103-0.010 0.14-0.030s0.065-0.048 0.083-0.083c0.019-0.036 0.029-0.077 0.029-0.124 0-0.050-0.009-0.093-0.028-0.129s-0.047-0.064-0.084-0.083c-0.038-0.019-0.085-0.029-0.142-0.029h-0.259v1.301h-0.32v-1.551zM31.759 22.102l-0.354-0.691 0.338-0.002 0.358 0.679v0.015h-0.342zM33.437 21.549h-0.395v-0.249h0.395c0.061 0 0.111-0.010 0.149-0.030s0.066-0.049 0.084-0.085c0.018-0.036 0.027-0.077 0.027-0.122s-0.009-0.089-0.027-0.129c-0.018-0.040-0.046-0.072-0.084-0.096s-0.088-0.036-0.149-0.036h-0.284v1.301h-0.32v-1.551h0.604c0.121 0 0.225 0.022 0.312 0.066s0.154 0.103 0.2 0.18c0.046 0.077 0.069 0.164 0.069 0.263 0 0.1-0.023 0.187-0.069 0.26s-0.113 0.13-0.2 0.169c-0.087 0.040-0.191 0.060-0.312 0.060zM35.28 21.853v0.249h-0.826v-0.249h0.826zM34.559 20.551v1.551h-0.32v-1.551h0.32zM35.172 21.183v0.243h-0.718v-0.243h0.718zM35.279 20.551v0.25h-0.825v-0.25h0.825zM36.181 20.551v1.551h-0.319v-1.551h0.319zM36.659 20.551v0.25h-1.266v-0.25h1.266zM37.881 21.853v0.249h-0.825v-0.249h0.825zM37.16 20.551v1.551h-0.32v-1.551h0.32zM37.774 21.183v0.243h-0.718v-0.243h0.718zM37.88 20.551v0.25h-0.824v-0.25h0.824zM38.068 20.551h0.579c0.119 0 0.22 0.018 0.306 0.053s0.152 0.088 0.198 0.158 0.069 0.155 0.069 0.257c0 0.083-0.014 0.154-0.043 0.214s-0.067 0.108-0.118 0.148c-0.051 0.039-0.11 0.070-0.178 0.094l-0.101 0.053h-0.503l-0.002-0.249h0.374c0.056 0 0.103-0.010 0.139-0.030s0.065-0.048 0.083-0.083c0.019-0.036 0.029-0.077 0.029-0.124 0-0.050-0.009-0.093-0.028-0.129s-0.047-0.064-0.084-0.083c-0.037-0.019-0.085-0.029-0.141-0.029h-0.259v1.301h-0.32v-1.551zM38.935 22.102l-0.354-0.691 0.338-0.002 0.358 0.679v0.015h-0.342zM40.273 21.696c0-0.028-0.004-0.053-0.013-0.075-0.008-0.023-0.023-0.043-0.045-0.062s-0.053-0.038-0.093-0.056c-0.040-0.018-0.091-0.038-0.154-0.058-0.071-0.023-0.137-0.048-0.2-0.077s-0.118-0.061-0.166-0.099c-0.048-0.038-0.085-0.083-0.113-0.133s-0.040-0.109-0.040-0.176c0-0.065 0.014-0.123 0.043-0.176s0.068-0.099 0.119-0.136c0.051-0.038 0.112-0.068 0.181-0.088 0.071-0.021 0.148-0.031 0.231-0.031 0.114 0 0.214 0.021 0.299 0.062s0.151 0.098 0.198 0.169c0.048 0.072 0.071 0.154 0.071 0.246h-0.317c0-0.045-0.009-0.085-0.029-0.119-0.018-0.035-0.047-0.062-0.085-0.082s-0.085-0.030-0.143-0.030c-0.055 0-0.101 0.009-0.139 0.026s-0.064 0.039-0.083 0.067c-0.019 0.028-0.028 0.059-0.028 0.094 0 0.026 0.006 0.050 0.019 0.071s0.033 0.041 0.060 0.060c0.026 0.018 0.059 0.036 0.097 0.052s0.083 0.032 0.133 0.048c0.085 0.026 0.159 0.054 0.223 0.086s0.119 0.068 0.162 0.108c0.043 0.040 0.076 0.085 0.098 0.135s0.033 0.108 0.033 0.172c0 0.067-0.013 0.128-0.039 0.181s-0.064 0.098-0.114 0.135c-0.049 0.037-0.109 0.065-0.178 0.084s-0.146 0.029-0.231 0.029c-0.076 0-0.152-0.010-0.227-0.030s-0.142-0.052-0.203-0.093c-0.060-0.041-0.109-0.094-0.145-0.158s-0.054-0.14-0.054-0.227h0.321c0 0.048 0.007 0.089 0.022 0.123s0.036 0.060 0.063 0.081c0.028 0.021 0.060 0.036 0.098 0.045s0.080 0.014 0.125 0.014c0.056 0 0.101-0.008 0.136-0.023 0.036-0.016 0.063-0.037 0.080-0.065s0.027-0.059 0.027-0.094z"></path>
</symbol>
<symbol id="icon-facebook" viewBox="0 0 32 32">
<path d="M19 6h5v-6h-5c-3.86 0-7 3.14-7 7v3h-4v6h4v16h6v-16h5l1-6h-6v-3c0-0.542 0.458-1 1-1z"></path>
</symbol>
<symbol id="icon-facebook2" viewBox="0 0 32 32">
<path d="M29 0h-26c-1.65 0-3 1.35-3 3v26c0 1.65 1.35 3 3 3h13v-14h-4v-4h4v-2c0-3.306 2.694-6 6-6h4v4h-4c-1.1 0-2 0.9-2 2v2h6l-1 4h-5v14h9c1.65 0 3-1.35 3-3v-26c0-1.65-1.35-3-3-3z"></path>
</symbol>
<symbol id="icon-instagram" viewBox="0 0 32 32">
<path d="M16 2.881c4.275 0 4.781 0.019 6.462 0.094 1.563 0.069 2.406 0.331 2.969 0.55 0.744 0.288 1.281 0.638 1.837 1.194 0.563 0.563 0.906 1.094 1.2 1.838 0.219 0.563 0.481 1.412 0.55 2.969 0.075 1.688 0.094 2.194 0.094 6.463s-0.019 4.781-0.094 6.463c-0.069 1.563-0.331 2.406-0.55 2.969-0.288 0.744-0.637 1.281-1.194 1.837-0.563 0.563-1.094 0.906-1.837 1.2-0.563 0.219-1.413 0.481-2.969 0.55-1.688 0.075-2.194 0.094-6.463 0.094s-4.781-0.019-6.463-0.094c-1.563-0.069-2.406-0.331-2.969-0.55-0.744-0.288-1.281-0.637-1.838-1.194-0.563-0.563-0.906-1.094-1.2-1.837-0.219-0.563-0.481-1.413-0.55-2.969-0.075-1.688-0.094-2.194-0.094-6.463s0.019-4.781 0.094-6.463c0.069-1.563 0.331-2.406 0.55-2.969 0.288-0.744 0.638-1.281 1.194-1.838 0.563-0.563 1.094-0.906 1.838-1.2 0.563-0.219 1.412-0.481 2.969-0.55 1.681-0.075 2.188-0.094 6.463-0.094zM16 0c-4.344 0-4.887 0.019-6.594 0.094-1.7 0.075-2.869 0.35-3.881 0.744-1.056 0.412-1.95 0.956-2.837 1.85-0.894 0.888-1.438 1.781-1.85 2.831-0.394 1.019-0.669 2.181-0.744 3.881-0.075 1.713-0.094 2.256-0.094 6.6s0.019 4.887 0.094 6.594c0.075 1.7 0.35 2.869 0.744 3.881 0.413 1.056 0.956 1.95 1.85 2.837 0.887 0.887 1.781 1.438 2.831 1.844 1.019 0.394 2.181 0.669 3.881 0.744 1.706 0.075 2.25 0.094 6.594 0.094s4.888-0.019 6.594-0.094c1.7-0.075 2.869-0.35 3.881-0.744 1.050-0.406 1.944-0.956 2.831-1.844s1.438-1.781 1.844-2.831c0.394-1.019 0.669-2.181 0.744-3.881 0.075-1.706 0.094-2.25 0.094-6.594s-0.019-4.887-0.094-6.594c-0.075-1.7-0.35-2.869-0.744-3.881-0.394-1.063-0.938-1.956-1.831-2.844-0.887-0.887-1.781-1.438-2.831-1.844-1.019-0.394-2.181-0.669-3.881-0.744-1.712-0.081-2.256-0.1-6.6-0.1v0z"></path>
<path d="M16 7.781c-4.537 0-8.219 3.681-8.219 8.219s3.681 8.219 8.219 8.219 8.219-3.681 8.219-8.219c0-4.537-3.681-8.219-8.219-8.219zM16 21.331c-2.944 0-5.331-2.387-5.331-5.331s2.387-5.331 5.331-5.331c2.944 0 5.331 2.387 5.331 5.331s-2.387 5.331-5.331 5.331z"></path>
<path d="M26.462 7.456c0 1.060-0.859 1.919-1.919 1.919s-1.919-0.859-1.919-1.919c0-1.060 0.859-1.919 1.919-1.919s1.919 0.859 1.919 1.919z"></path>
</symbol>
<symbol id="icon-twitter" viewBox="0 0 32 32">
<path d="M32 7.075c-1.175 0.525-2.444 0.875-3.769 1.031 1.356-0.813 2.394-2.1 2.887-3.631-1.269 0.75-2.675 1.3-4.169 1.594-1.2-1.275-2.906-2.069-4.794-2.069-3.625 0-6.563 2.938-6.563 6.563 0 0.512 0.056 1.012 0.169 1.494-5.456-0.275-10.294-2.888-13.531-6.862-0.563 0.969-0.887 2.1-0.887 3.3 0 2.275 1.156 4.287 2.919 5.463-1.075-0.031-2.087-0.331-2.975-0.819 0 0.025 0 0.056 0 0.081 0 3.181 2.263 5.838 5.269 6.437-0.55 0.15-1.131 0.231-1.731 0.231-0.425 0-0.831-0.044-1.237-0.119 0.838 2.606 3.263 4.506 6.131 4.563-2.25 1.762-5.075 2.813-8.156 2.813-0.531 0-1.050-0.031-1.569-0.094 2.913 1.869 6.362 2.95 10.069 2.95 12.075 0 18.681-10.006 18.681-18.681 0-0.287-0.006-0.569-0.019-0.85 1.281-0.919 2.394-2.075 3.275-3.394z"></path>
</symbol>
<symbol id="icon-linkedin" viewBox="0 0 32 32">
<path d="M29 0h-26c-1.65 0-3 1.35-3 3v26c0 1.65 1.35 3 3 3h26c1.65 0 3-1.35 3-3v-26c0-1.65-1.35-3-3-3zM12 26h-4v-14h4v14zM10 10c-1.106 0-2-0.894-2-2s0.894-2 2-2c1.106 0 2 0.894 2 2s-0.894 2-2 2zM26 26h-4v-8c0-1.106-0.894-2-2-2s-2 0.894-2 2v8h-4v-14h4v2.481c0.825-1.131 2.087-2.481 3.5-2.481 2.488 0 4.5 2.238 4.5 5v9z"></path>
</symbol>
<symbol id="icon-linkedin2" viewBox="0 0 32 32">
<path d="M12 12h5.535v2.837h0.079c0.77-1.381 2.655-2.837 5.464-2.837 5.842 0 6.922 3.637 6.922 8.367v9.633h-5.769v-8.54c0-2.037-0.042-4.657-3.001-4.657-3.005 0-3.463 2.218-3.463 4.509v8.688h-5.767v-18z"></path>
<path d="M2 12h6v18h-6v-18z"></path>
<path d="M8 7c0 1.657-1.343 3-3 3s-3-1.343-3-3c0-1.657 1.343-3 3-3s3 1.343 3 3z"></path>
</symbol>
</defs>
</svg>
